<svg width="148" height="162" viewBox="0 0 148 162" fill="none" xmlns="http://www.w3.org/2000/svg">
<path opacity="0.05" d="M148 61.336V116.349C148 120.333 146.175 124.057 143.115 126.511C143.105 126.521 143.095 126.521 143.086 126.53C142.574 126.944 142.033 127.319 141.454 127.656L133.498 132.227L93.9132 155.004L93.7008 155.129C93.6815 155.139 93.6622 155.149 93.6525 155.158L93.5753 155.197L93.527 155.226L88.4872 158.132C79.5178 163.289 68.4726 163.289 59.5032 158.132L54.3474 155.158L18.6147 134.604L18.605 134.594L14.492 132.227L11.5183 130.514L10.8135 130.11L6.57499 127.675L6.54602 127.656C5.45502 127.031 4.47988 126.261 3.6399 125.376C1.33238 122.98 0 119.756 0 116.349V55.4083C0 45.0831 5.5226 35.5469 14.492 30.3891L19.6477 27.4253L47.1256 11.6054H47.1352L59.5611 4.45566L61.5114 3.32979C67.7871 -0.278754 75.2503 -0.95235 81.9605 1.29938C82.9839 1.63618 83.9977 2.04996 84.9921 2.54072C85.4942 2.78129 85.9769 3.04111 86.4596 3.32017C86.4693 3.32017 86.479 3.32017 86.4886 3.32979L88.4872 4.48453L98.4124 10.2005L110.5 17.1481L128.343 27.4156H128.352C128.381 27.4253 128.401 27.4445 128.41 27.4638H128.42C128.449 27.4734 128.468 27.483 128.487 27.5022L128.497 27.5119L129.453 28.0604L134.792 31.1012C135.313 31.4187 135.873 31.8325 136.443 32.3329C141.319 35.9895 144.881 41.0704 146.677 46.8056C146.697 46.8633 146.706 46.921 146.726 46.9692C147.43 49.0092 147.691 50.6835 147.855 52.6177C147.874 52.7717 147.884 52.9257 147.894 53.0892C147.903 53.0989 147.903 53.1181 147.903 53.1374C147.903 53.147 147.903 53.147 147.903 53.1566V53.1662H147.894C147.961 53.9072 147.99 54.6578 147.99 55.4083V60.9799C148 61.0954 148 61.2205 148 61.336Z" fill="url(#paint0_linear)"/>
<defs>
<linearGradient id="paint0_linear" x1="74" y1="0" x2="70.5728" y2="189.088" gradientUnits="userSpaceOnUse">
<stop stop-color="#37414D"/>
<stop offset="0.84375" stop-color="#37414D" stop-opacity="0.630208"/>
<stop offset="1" stop-color="#37414D" stop-opacity="0"/>
</linearGradient>
</defs>
</svg>
