<?xml version="1.0" encoding="utf-8"?>
<!-- Generator: Adobe Illustrator 24.0.2, SVG Export Plug-In . SVG Version: 6.00 Build 0)  -->
<svg version="1.1" id="Layer_1" xmlns="http://www.w3.org/2000/svg" xmlns:xlink="http://www.w3.org/1999/xlink" x="0px" y="0px"
	 viewBox="0 0 884 607.5" style="enable-background:new 0 0 884 607.5;" xml:space="preserve">
<style type="text/css">
	.st0{fill:#FFFFFF;}
	.st1{fill:#3F3D56;}
	.st2{fill:#E6E6E6;}
	.st3{fill:#00A7FF;}
	.st4{fill:#CCCCCC;}
	.st5{fill:#F1F1F1;}
	.st6{fill:#E5E5E5;}
</style>
<path class="st0" d="M614.9,228.8h-0.1l-71.5,30.5l-97.8,41.8c-0.8,0.3-1.6,0.3-2.4,0l-100.9-41.9l-73.2-30.4l-0.1,0h-0.1
	c-2.4,0-4.4,2-4.4,4.4v189.3c0,2.4,2,4.4,4.4,4.4h346.2c2.4,0,4.4-2,4.4-4.4V233.2C619.3,230.8,617.3,228.8,614.9,228.8z"/>
<path class="st1" d="M615.2,230.1c-0.1,0-0.3,0-0.4-0.1L442.6,110c-1.1-0.7-2.5-0.7-3.6,0l-171,119.9c-0.3,0.2-0.7,0.1-0.9-0.2
	c-0.2-0.3-0.1-0.7,0.2-0.9l171-119.9c1.5-1,3.5-1,5,0l172.2,119.9c0.3,0.2,0.4,0.6,0.2,0.9C615.6,230,615.4,230.1,615.2,230.1z"/>
<polygon class="st2" points="277.9,234.3 441,113.4 605.4,242.9 449.4,335.4 364.7,316.1 "/>
<path class="st3" d="M371.9,392.5h-80.6c-2.1,0-3.8-1.7-3.8-3.8c0-2.1,1.7-3.8,3.8-3.8h80.6c2.1,0,3.8,1.7,3.8,3.8
	C375.7,390.8,374,392.5,371.9,392.5L371.9,392.5z"/>
<path class="st3" d="M320.2,376.3h-28.9c-2.1,0-3.8-1.7-3.8-3.8c0-2.1,1.7-3.8,3.8-3.8h28.9c2.1,0,3.8,1.7,3.8,3.8
	C324,374.6,322.3,376.3,320.2,376.3L320.2,376.3L320.2,376.3z"/>
<path class="st0" d="M443.3,301.7c-0.6,0-1.2-0.1-1.8-0.4l-100.6-41.8V128.9c0-2.4,2-4.4,4.4-4.4h193c2.4,0,4.4,2,4.4,4.4v130.8
	l-0.2,0.1l-97.3,41.6C444.6,301.5,443.9,301.7,443.3,301.7z"/>
<path class="st1" d="M443.3,302c-0.7,0-1.3-0.1-1.9-0.4l-100.8-41.8V128.9c0-2.6,2.1-4.7,4.7-4.7h193c2.6,0,4.7,2.1,4.7,4.7v131
	l-97.7,41.7C444.7,301.8,444,302,443.3,302z M341.8,258.9l100.1,41.5c0.9,0.4,2,0.4,2.9,0l96.9-41.4V128.9c0-1.9-1.5-3.4-3.4-3.4
	h-193c-1.9,0-3.4,1.5-3.4,3.4L341.8,258.9z"/>
<path class="st1" d="M614,228.8h-0.1l-71.5,30.5l-97.8,41.8c-0.8,0.3-1.6,0.3-2.4,0l-100.9-41.9L268,228.9l-0.1,0h-0.1
	c-2.4,0-4.4,2-4.4,4.4v189.3c0,2.4,2,4.4,4.4,4.4H614c2.4,0,4.4-2,4.4-4.4V233.2C618.3,230.8,616.4,228.8,614,228.8z M617.1,422.5
	c0,1.7-1.4,3.1-3.1,3.1H267.7c-1.7,0-3.1-1.4-3.1-3.1V233.2c0-1.7,1.3-3,3-3.1l73.6,30.5l100.4,41.7c1.1,0.4,2.3,0.4,3.4,0
	l97.3-41.6l71.7-30.6c1.7,0.1,3,1.4,3,3.1L617.1,422.5z"/>
<path class="st3" d="M427.6,173.4h-68.5c-2.8,0-5-2.2-5-5c0-2.7,2.2-5,5-5h68.5c2.8,0,5,2.2,5,5
	C432.6,171.1,430.4,173.4,427.6,173.4z"/>
<path class="st3" d="M392.1,152.2h-33c-2.8,0-5-2.2-5-5c0-2.8,2.2-5,5-5h33c2.8,0,5,2.2,5,5C397.1,150,394.9,152.2,392.1,152.2z"/>
<path class="st4" d="M493,223.2H388.4c-2.8,0-5-2.2-5-5c0-2.7,2.2-5,5-5H493c2.8,0,5,2.2,5,5C498,221,495.8,223.2,493,223.2z"/>
<path class="st4" d="M493,246.2H388.4c-2.8,0-5-2.2-5-5s2.2-5,5-5H493c2.8,0,5,2.2,5,5S495.8,246.2,493,246.2z"/>
<circle class="st3" cx="612" cy="230.6" r="47.4"/>
<polygon class="st0" points="607.5,250.6 593.3,232.4 601.6,226 608.3,234.6 631,210.7 638.6,217.9 "/>
<path class="st5" d="M171.5,148c-1-0.6-2.2-0.2-2.7,0.7c-0.2,0.4-0.3,0.8-0.3,1.3l1.5,11.3c0,0.2,0,0.3,0,0.5c0,0.2-0.1,0.3-0.2,0.4
	l-8.6,10.2c-0.6,0.7-0.6,1.7-0.1,2.4l0,0c0.5,0.7,1.4,1.1,2.3,0.8l6.2-2.1c0.4-0.1,0.9,0,1.2,0.3c0.2,0.2,0.4,0.5,0.4,0.9l0.2,22.2
	c0,0.7,0.3,1.3,0.9,1.6c0.5,0.4,1.2,0.4,1.8,0.2l46.6-17.8c1-0.4,1.5-1.5,1.2-2.6c-0.2-0.4-0.5-0.8-0.9-1l-0.6-0.4L171.5,148
	L171.5,148z M169.3,149.9c-0.1-0.7,0.4-1.3,1-1.3c0.3,0,0.5,0,0.8,0.2l48.8,29l0.7,0.4c0.6,0.3,0.8,1.1,0.4,1.6
	c-0.1,0.2-0.3,0.4-0.6,0.5L173.8,198c-0.6,0.2-1.3-0.1-1.5-0.7c-0.1-0.1-0.1-0.3-0.1-0.4l-0.2-22.2c0-0.2,0-0.4-0.1-0.6l47.5,5.5
	c0.4,0.1,0.8-0.3,0.9-0.7c0-0.3-0.1-0.6-0.4-0.8c0,0-0.1,0-0.1-0.1l-48.8-16.3c0-0.1,0-0.3,0-0.4L169.3,149.9L169.3,149.9z"/>
<path class="st6" d="M171.5,148c-1-0.6-2.2-0.2-2.7,0.7c-0.2,0.4-0.3,0.8-0.3,1.3l1.5,11.3c0,0.2,0,0.3,0,0.5c0,0.2-0.1,0.3-0.2,0.4
	l-8.6,10.2c-0.6,0.7-0.6,1.7-0.1,2.4l0,0c0.5,0.7,1.4,1.1,2.3,0.8l6.2-2.1c0.4-0.1,0.9,0,1.2,0.3c0.2,0.2,0.4,0.5,0.4,0.9l0.2,22.2
	c0,0.7,0.3,1.3,0.9,1.6c0.5,0.4,1.2,0.4,1.8,0.2l46.6-17.8c1-0.4,1.5-1.5,1.2-2.6c-0.2-0.4-0.5-0.8-0.9-1l-0.6-0.4L171.5,148
	L171.5,148z M169.3,149.9c-0.1-0.7,0.4-1.3,1-1.3c0.3,0,0.5,0,0.8,0.2l48.8,29l0.7,0.4c0.6,0.3,0.8,1.1,0.4,1.6
	c-0.1,0.2-0.3,0.4-0.6,0.5L173.8,198c-0.6,0.2-1.3-0.1-1.5-0.7c-0.1-0.1-0.1-0.3-0.1-0.4l-0.2-22.2c0-0.2,0-0.4-0.1-0.6
	c-0.1-0.3-0.3-0.6-0.5-0.8c0,0-0.1-0.1-0.1-0.1l0,0c-0.5-0.4-1.3-0.6-1.9-0.4l-6.2,2.1c-0.5,0.2-1.1,0-1.4-0.5l0,0
	c-0.3-0.4-0.3-1,0.1-1.4l8.6-10.2c0.1-0.1,0.2-0.2,0.2-0.3l0,0c0.1-0.1,0.1-0.2,0.2-0.4c0-0.1,0.1-0.3,0.1-0.4c0-0.1,0-0.3,0-0.4
	L169.3,149.9L169.3,149.9z"/>
<path class="st6" d="M170.9,161.7l48.8,16.3c0,0,0.1,0,0.1,0.1c0.4,0.2,0.5,0.7,0.3,1.1c-0.2,0.3-0.5,0.5-0.8,0.4l-47.5-5.5
	l-0.8-0.1l0.1-0.8l0.1,0l0,0l48.2,5.5l-48.7-16.3l0,0l-0.2-0.1l0.3-0.8L170.9,161.7z"/>
<path class="st5" d="M715.3,101l-48.8,29l-0.6,0.4c-0.9,0.6-1.3,1.8-0.7,2.7c0.2,0.4,0.6,0.7,1,0.9l46.6,17.8
	c0.6,0.2,1.3,0.2,1.8-0.2c0.5-0.4,0.9-1,0.9-1.6l0.2-22.2c0-0.3,0.1-0.6,0.4-0.9c0.3-0.3,0.8-0.4,1.2-0.3l6.2,2.1
	c0.8,0.3,1.8,0,2.3-0.8l0,0c0.5-0.7,0.5-1.7-0.1-2.4l-8.6-10.2c-0.1-0.1-0.2-0.3-0.2-0.4c0-0.2-0.1-0.3,0-0.5l1.5-11.3
	c0.1-1.1-0.6-2.1-1.7-2.3C716.1,100.7,715.7,100.8,715.3,101L715.3,101z M717.5,102.9l-1.5,11.3c0,0.1,0,0.3,0,0.4l-48.8,16.3
	c0,0-0.1,0-0.1,0.1c-0.4,0.2-0.5,0.7-0.3,1.1c0.2,0.3,0.5,0.5,0.8,0.4L715,127c-0.1,0.2-0.1,0.4-0.1,0.6l-0.2,22.2
	c0,0.7-0.6,1.2-1.2,1.2c-0.1,0-0.3,0-0.4-0.1l-46.6-17.8c-0.6-0.2-0.9-0.9-0.7-1.6c0.1-0.2,0.3-0.5,0.5-0.6l0.7-0.4l48.8-29
	c0.6-0.3,1.3-0.1,1.6,0.4C717.5,102.4,717.5,102.6,717.5,102.9L717.5,102.9z"/>
<path class="st6" d="M715.3,101l-48.8,29l-0.6,0.4c-0.9,0.6-1.3,1.8-0.7,2.7c0.2,0.4,0.6,0.7,1,0.9l46.6,17.8
	c0.6,0.2,1.3,0.2,1.8-0.2c0.5-0.4,0.9-1,0.9-1.6l0.2-22.2c0-0.3,0.1-0.6,0.4-0.9c0.3-0.3,0.8-0.4,1.2-0.3l6.2,2.1
	c0.8,0.3,1.8,0,2.3-0.8l0,0c0.5-0.7,0.5-1.7-0.1-2.4l-8.6-10.2c-0.1-0.1-0.2-0.3-0.2-0.4c0-0.2-0.1-0.3,0-0.5l1.5-11.3
	c0.1-1.1-0.6-2.1-1.7-2.3C716.1,100.7,715.7,100.8,715.3,101L715.3,101z M717.5,102.9l-1.5,11.3c0,0.1,0,0.3,0,0.4
	c0,0.1,0,0.3,0.1,0.4c0,0.1,0.1,0.3,0.2,0.4l0,0c0.1,0.1,0.1,0.2,0.2,0.3l8.6,10.2c0.4,0.4,0.4,1,0.1,1.4l0,0
	c-0.3,0.5-0.9,0.6-1.4,0.5l-6.2-2.1c-0.7-0.2-1.4-0.1-1.9,0.4l0,0c0,0-0.1,0.1-0.1,0.1c-0.2,0.2-0.4,0.5-0.5,0.8
	c-0.1,0.2-0.1,0.4-0.1,0.6l-0.2,22.2c0,0.7-0.6,1.2-1.2,1.2c-0.1,0-0.3,0-0.4-0.1l-46.6-17.8c-0.6-0.2-0.9-0.9-0.7-1.6
	c0.1-0.2,0.3-0.5,0.5-0.6l0.7-0.4l48.8-29c0.6-0.3,1.3-0.1,1.6,0.4C717.5,102.4,717.5,102.6,717.5,102.9L717.5,102.9z"/>
<path class="st6" d="M716.1,114.6l0.3,0.8l-0.2,0.1l0,0l-48.7,16.3l48.2-5.5l0,0l0.1,0l0.1,0.8L715,127l-47.5,5.5
	c-0.4,0.1-0.8-0.3-0.9-0.7c0-0.3,0.1-0.6,0.4-0.8c0,0,0.1,0,0.1-0.1l48.8-16.3L716.1,114.6z"/>
<path class="st5" d="M297.3,506c-1,0.5-1.4,1.7-0.9,2.7c0.2,0.4,0.5,0.7,0.9,0.9l10.4,4.7c0.2,0.1,0.3,0.2,0.4,0.3
	c0.1,0.1,0.2,0.3,0.2,0.4l4,12.8c0.3,0.9,1.1,1.4,2,1.4l0,0c0.9,0,1.7-0.7,1.9-1.5l1.5-6.4c0.1-0.4,0.4-0.8,0.9-0.9
	c0.3-0.1,0.6,0,0.9,0.1l18.9,11.7c0.6,0.3,1.2,0.4,1.8,0.1c0.6-0.3,1-0.8,1.2-1.4l9.8-48.9c0.2-1.1-0.5-2.1-1.6-2.4
	c-0.4-0.1-0.9,0-1.3,0.2l-0.7,0.3L297.3,506z M297.7,508.8c-0.6-0.3-0.9-1-0.6-1.6c0.1-0.2,0.3-0.4,0.5-0.6l50.6-25.8l0.7-0.3
	c0.6-0.3,1.3-0.1,1.6,0.5c0.1,0.2,0.2,0.5,0.1,0.8l-9.8,48.9c-0.1,0.6-0.8,1.1-1.4,0.9c-0.1,0-0.3-0.1-0.4-0.2l-18.9-11.7
	c-0.2-0.1-0.4-0.2-0.6-0.3l30-37.2c0.3-0.3,0.2-0.8-0.1-1.1c-0.3-0.2-0.6-0.2-0.9-0.1c0,0-0.1,0-0.1,0.1l-39.8,32.5
	c-0.1-0.1-0.2-0.2-0.4-0.2L297.7,508.8L297.7,508.8z"/>
<path class="st6" d="M297.3,506c-1,0.5-1.4,1.7-0.9,2.7c0.2,0.4,0.5,0.7,0.9,0.9l10.4,4.7c0.2,0.1,0.3,0.2,0.4,0.3
	c0.1,0.1,0.2,0.3,0.2,0.4l4,12.8c0.3,0.9,1.1,1.4,2,1.4l0,0c0.9,0,1.7-0.7,1.9-1.5l1.5-6.4c0.1-0.4,0.4-0.8,0.9-0.9
	c0.3-0.1,0.6,0,0.9,0.1l18.9,11.7c0.6,0.3,1.2,0.4,1.8,0.1c0.6-0.3,1-0.8,1.2-1.4l9.8-48.9c0.2-1.1-0.5-2.1-1.6-2.4
	c-0.4-0.1-0.9,0-1.3,0.2l-0.7,0.3L297.3,506z M297.7,508.8c-0.6-0.3-0.9-1-0.6-1.6c0.1-0.2,0.3-0.4,0.5-0.6l50.6-25.8l0.7-0.3
	c0.6-0.3,1.3-0.1,1.6,0.5c0.1,0.2,0.2,0.5,0.1,0.8l-9.8,48.9c-0.1,0.6-0.8,1.1-1.4,0.9c-0.1,0-0.3-0.1-0.4-0.2l-18.9-11.7
	c-0.2-0.1-0.4-0.2-0.6-0.3c-0.3-0.1-0.6-0.1-0.9,0c0,0-0.1,0-0.1,0l0,0c-0.7,0.2-1.2,0.8-1.3,1.4l-1.5,6.4c-0.1,0.5-0.6,0.9-1.1,0.9
	l0,0c-0.5,0-1-0.3-1.2-0.8l-4-12.8c0-0.1-0.1-0.3-0.2-0.4l0,0c-0.1-0.1-0.1-0.2-0.2-0.3c-0.1-0.1-0.2-0.2-0.3-0.3
	c-0.1-0.1-0.2-0.2-0.4-0.2L297.7,508.8L297.7,508.8z"/>
<path class="st6" d="M308.5,513.8l39.8-32.5c0,0,0.1-0.1,0.1-0.1c0.4-0.2,0.9-0.1,1.1,0.3c0.2,0.3,0.1,0.6-0.1,0.9l-30,37.2
	l-0.5,0.7l-0.6-0.5l0.1-0.1l0,0l30.4-37.7L309,514.4l0,0l-0.2,0.1l-0.5-0.6L308.5,513.8z"/>
</svg>
