<svg width="226" height="162" viewBox="0 0 226 162" fill="none" xmlns="http://www.w3.org/2000/svg">
<path opacity="0.05" d="M187 61.336V116.349C187 120.333 185.175 124.057 182.115 126.511C182.105 126.521 182.095 126.521 182.086 126.53C181.574 126.944 181.033 127.319 180.454 127.656L172.498 132.227L132.913 155.004L132.701 155.129C132.682 155.139 132.662 155.149 132.653 155.158L132.575 155.197L132.527 155.226L127.487 158.132C118.518 163.289 107.473 163.289 98.5032 158.132L93.3474 155.158L57.6147 134.604L57.605 134.594L53.492 132.227L50.5183 130.514L49.8135 130.11L45.575 127.675L45.546 127.656C44.455 127.031 43.4799 126.261 42.6399 125.376C40.3324 122.98 39 119.756 39 116.349V55.4083C39 45.0831 44.5226 35.5469 53.492 30.3891L58.6477 27.4253L86.1256 11.6054H86.1352L98.5611 4.45566L100.511 3.32979C106.787 -0.278754 114.25 -0.95235 120.96 1.29938C121.984 1.63618 122.998 2.04996 123.992 2.54072C124.494 2.78129 124.977 3.04111 125.46 3.32017C125.469 3.32017 125.479 3.32017 125.489 3.32979L127.487 4.48453L137.412 10.2005L149.5 17.1481L167.343 27.4156H167.352C167.381 27.4253 167.401 27.4445 167.41 27.4638H167.42C167.449 27.4734 167.468 27.483 167.487 27.5022L167.497 27.5119L168.453 28.0604L173.792 31.1012C174.313 31.4187 174.873 31.8325 175.443 32.3329C180.319 35.9895 183.881 41.0704 185.677 46.8056C185.697 46.8633 185.706 46.921 185.726 46.9692C186.43 49.0092 186.691 50.6835 186.855 52.6177C186.874 52.7717 186.884 52.9257 186.894 53.0892C186.903 53.0989 186.903 53.1181 186.903 53.1374C186.903 53.147 186.903 53.147 186.903 53.1566V53.1662H186.894C186.961 53.9072 186.99 54.6578 186.99 55.4083V60.9799C187 61.0954 187 61.2205 187 61.336Z" fill="url(#paint0_linear)"/>
<path opacity="0.05" d="M224.803 63.2006C223.584 65.8252 221.582 68.421 218.931 71.0456C218.147 71.834 217.306 72.6127 216.416 73.4011C216.396 73.4107 216.387 73.4203 216.377 73.4395C215.787 73.9491 215.168 74.4779 214.539 74.997C214.21 75.2662 213.881 75.5354 213.542 75.8046C213.204 76.0738 212.855 76.343 212.507 76.6122C211.578 77.3332 210.621 78.0543 209.605 78.785C207.776 80.1021 205.812 81.4384 203.723 82.794C203.481 82.9478 203.229 83.1113 202.978 83.2651C202.097 83.8323 201.198 84.39 200.279 84.9476C199.379 85.5148 198.45 86.0628 197.512 86.6204C197.492 86.63 197.473 86.6396 197.454 86.6493C196.515 87.2165 195.548 87.7741 194.571 88.3317C194.068 88.6105 193.565 88.899 193.052 89.1874C189.975 90.9179 186.715 92.6677 183.281 94.4078C178.724 96.7248 173.877 99.0418 168.759 101.33C167.502 101.907 166.225 102.464 164.928 103.032C154.431 107.637 142.851 112.136 130.42 116.309C117.998 120.51 104.724 124.384 90.8221 127.846C89.0807 128.278 87.3296 128.692 85.5785 129.095C80.2866 130.336 74.9076 131.48 69.4416 132.528C62.1857 133.912 54.7848 135.104 47.2581 135.95C43.5528 136.364 39.8281 136.71 36.0648 136.921C34.1783 140.421 30.0086 142.901 25.1133 142.997C19.5892 143.103 14.8584 140.132 13.2525 135.96C12.9235 135.902 12.5946 135.835 12.2657 135.758C10.2147 135.258 8.07664 134.623 5.93859 133.479C4.8744 132.893 3.80054 132.172 2.7944 131.162C2.29133 130.662 1.81728 130.086 1.41096 129.432C1.29486 129.259 1.1304 128.97 1.03365 128.768L1.02398 128.759C0.965932 128.653 0.907885 128.528 0.849839 128.413C0.753094 128.24 0.695048 128.047 0.617652 127.865L0.511233 127.586C0.453187 127.403 0.501559 127.615 0.356442 127.105L0.269372 126.759L0.230675 126.586C0.211326 126.538 0.201651 126.48 0.172628 126.346C0.143605 126.153 0.104907 125.952 0.0758838 125.74C0.0371861 125.471 0.0081628 125.211 0.0081628 125.009C-0.0208605 124.24 0.0275117 123.5 0.153279 122.817C0.404815 121.433 0.869187 120.231 1.41096 119.154C1.48835 119.001 1.57542 118.847 1.66249 118.693C2.70733 116.78 3.96501 115.232 5.26138 113.799C8.08632 110.752 11.1725 108.291 14.3167 105.983C19.5021 102.243 24.8908 99.0226 30.3472 96.0518C31.3533 95.5038 32.3595 94.9558 33.3753 94.427C33.5591 94.3213 33.7429 94.2251 33.9267 94.129C34.304 93.9367 34.691 93.7348 35.0877 93.5329C36.2679 92.9272 37.4869 92.3216 38.6285 91.7543V98.6764C38.3963 98.8014 38.0287 98.9649 37.7771 99.0899V99.0995C37.4966 99.2437 37.2257 99.3879 36.9548 99.5417C36.1518 99.9936 35.3585 100.436 34.5556 100.897C28.9734 104.089 23.4977 107.512 18.4476 111.367C15.584 113.569 12.8365 115.924 10.6017 118.462C9.50846 119.722 8.54101 121.048 7.95087 122.298C7.66064 122.913 7.47683 123.5 7.4091 123.971C7.37041 124.211 7.37041 124.413 7.38976 124.586C7.38008 124.625 7.38976 124.634 7.38976 124.644C7.38976 124.644 7.38976 124.644 7.38008 124.644C7.38008 124.654 7.38976 124.702 7.39943 124.74L7.4478 124.913L7.4865 125.048C7.4865 125.048 7.49617 125.086 7.49617 125.096H7.50585L7.53487 125.144C7.54455 125.182 7.54455 125.221 7.57357 125.25C7.63162 125.317 7.64129 125.394 7.70901 125.461C7.80576 125.596 7.92185 125.75 8.08632 125.903C8.05729 125.894 8.00892 125.875 7.95087 125.836C7.97022 125.865 7.99925 125.894 8.02827 125.923C8.03794 125.932 8.04762 125.932 8.04762 125.932C8.38622 126.259 8.88929 126.596 9.48911 126.903C10.6984 127.519 12.2657 127.99 13.891 128.326C13.9006 128.326 13.9007 128.326 13.9103 128.326C15.8646 124.961 19.9472 122.596 24.7263 122.51C29.8731 122.414 34.3234 124.981 36.2002 128.701C39.5379 128.413 42.8756 128.019 46.1939 127.567C60.6862 125.509 74.8786 122.414 88.4615 118.866C102.054 115.366 115.047 111.319 127.246 107.214C139.436 103.06 150.842 98.8207 161.213 94.552C171.575 90.2738 180.901 85.9763 188.921 81.7845C196.931 77.612 203.636 73.4876 208.647 69.6804C213.668 65.9213 216.957 62.3161 218.012 60.0472C218.544 58.9608 218.592 58.3262 218.592 57.9994V57.9224C218.592 57.9224 218.602 57.9224 218.602 57.9128C218.65 57.9801 218.573 57.7206 218.554 57.634C218.544 57.5763 218.534 57.5379 218.525 57.4994L218.515 57.461L218.496 57.3937C218.467 57.3264 218.418 57.2206 218.341 57.086C218.167 56.8072 217.789 56.2784 216.677 55.6343C214.5 54.3076 209.692 53.1443 203.374 52.8462C200.82 52.7116 197.821 52.7309 194.609 52.8462C192.52 52.9135 190.353 53.0289 188.166 53.1731C187.702 53.2019 187.296 53.2116 186.831 53.25C186.657 51.0388 186.27 49.2121 185.603 46.9047C188.621 46.5779 191.523 46.3375 194.29 46.1933C197.637 46.0106 200.772 45.9529 203.655 46.0395C210.543 46.251 216.174 47.1835 220.218 49.3659C220.682 49.6063 221.117 49.8755 221.524 50.1543C221.543 50.1735 221.562 50.1831 221.582 50.2024C222.917 51.1349 223.942 52.2405 224.542 53.1923C224.61 53.2981 224.668 53.3942 224.726 53.4904C225.016 53.9903 225.21 54.4037 225.326 54.7114C225.364 54.7979 225.393 54.8748 225.422 54.9421C225.5 55.1536 225.539 55.2594 225.539 55.2594L225.597 55.4709C225.597 55.4709 225.635 55.5862 225.693 55.8074C225.722 55.9516 225.751 55.9612 225.819 56.3746C225.877 56.6919 225.964 57.1533 225.974 57.5187C226.1 58.9992 225.78 61.1335 224.803 63.2006Z" fill="#37414D"/>
<defs>
<linearGradient id="paint0_linear" x1="113" y1="0" x2="109.573" y2="189.088" gradientUnits="userSpaceOnUse">
<stop stop-color="#37414D"/>
<stop offset="0.84375" stop-color="#37414D" stop-opacity="0.630208"/>
<stop offset="1" stop-color="#37414D" stop-opacity="0"/>
</linearGradient>
</defs>
</svg>
