<svg width="226" height="97" viewBox="0 0 226 97" fill="none" xmlns="http://www.w3.org/2000/svg">
<path opacity="0.05" d="M224.803 17.2006C223.584 19.8252 221.582 22.421 218.931 25.0456C218.147 25.834 217.306 26.6127 216.416 27.4011C216.396 27.4107 216.387 27.4203 216.377 27.4395C215.787 27.9491 215.168 28.4779 214.539 28.997C214.21 29.2662 213.881 29.5354 213.542 29.8046C213.204 30.0738 212.855 30.343 212.507 30.6122C211.578 31.3332 210.621 32.0543 209.605 32.785C207.776 34.1021 205.812 35.4384 203.723 36.794C203.481 36.9478 203.229 37.1113 202.978 37.2651C202.097 37.8323 201.198 38.39 200.279 38.9476C199.379 39.5148 198.45 40.0628 197.512 40.6204C197.492 40.63 197.473 40.6396 197.454 40.6493C196.515 41.2165 195.548 41.7741 194.571 42.3317C194.068 42.6105 193.565 42.899 193.052 43.1874C189.975 44.9179 186.715 46.6677 183.281 48.4078C178.724 50.7248 173.877 53.0418 168.759 55.3299C167.502 55.9068 166.225 56.4644 164.928 57.0316C154.431 61.6367 142.851 66.1361 130.42 70.3086C117.998 74.51 104.724 78.3844 90.8221 81.8455C89.0807 82.2781 87.3296 82.6916 85.5785 83.0953C80.2866 84.3356 74.9076 85.4796 69.4416 86.5275C62.1857 87.912 54.7848 89.1041 47.2581 89.9502C43.5528 90.3636 39.8281 90.7097 36.0648 90.9212C34.1783 94.4207 30.0086 96.9011 25.1133 96.9973C19.5892 97.103 14.8584 94.1323 13.2525 89.9598C12.9235 89.9021 12.5946 89.8348 12.2657 89.7579C10.2147 89.2579 8.07664 88.6234 5.93859 87.4793C4.8744 86.8929 3.80054 86.1718 2.7944 85.1624C2.29133 84.6624 1.81728 84.0856 1.41096 83.4318C1.29486 83.2588 1.1304 82.9703 1.03365 82.7684L1.02398 82.7588C0.965932 82.6531 0.907885 82.5281 0.849839 82.4127C0.753094 82.2397 0.695048 82.0474 0.617652 81.8647L0.511233 81.5859C0.453187 81.4033 0.501559 81.6148 0.356442 81.1052L0.269372 80.7591L0.230675 80.5861C0.211326 80.538 0.201651 80.4803 0.172628 80.3457C0.143605 80.1534 0.104907 79.9515 0.0758838 79.74C0.0371861 79.4708 0.0081628 79.2113 0.0081628 79.0094C-0.0208605 78.2402 0.0275117 77.5 0.153279 76.8174C0.404815 75.4329 0.869187 74.2312 1.41096 73.1544C1.48835 73.0006 1.57542 72.8467 1.66249 72.6929C2.70733 70.7797 3.96501 69.2319 5.26138 67.7994C8.08632 64.7517 11.1725 62.2905 14.3167 59.9831C19.5021 56.2433 24.8908 53.0226 30.3472 50.0518C31.3533 49.5038 32.3595 48.9558 33.3753 48.427C33.5591 48.3213 33.7429 48.2251 33.9267 48.129C34.304 47.9367 34.691 47.7348 35.0877 47.5329C36.2679 46.9272 37.4869 46.3216 38.6285 45.7543V52.6764C38.3963 52.8014 38.0287 52.9649 37.7771 53.0899V53.0995C37.4966 53.2437 37.2257 53.3879 36.9548 53.5417C36.1518 53.9936 35.3585 54.4358 34.5556 54.8973C28.9734 58.0892 23.4977 61.5118 18.4476 65.367C15.584 67.5686 12.8365 69.9241 10.6017 72.4622C9.50846 73.7216 8.54101 75.0484 7.95087 76.2982C7.66064 76.9135 7.47683 77.5 7.4091 77.971C7.37041 78.2114 7.37041 78.4133 7.38976 78.5863C7.38008 78.6248 7.38976 78.6344 7.38976 78.644C7.38976 78.644 7.38976 78.644 7.38008 78.644C7.38008 78.6536 7.38976 78.7017 7.39943 78.7402L7.4478 78.9132L7.4865 79.0478C7.4865 79.0478 7.49617 79.0863 7.49617 79.0959H7.50585L7.53487 79.144C7.54455 79.1824 7.54455 79.2209 7.57357 79.2497C7.63162 79.317 7.64129 79.3939 7.70901 79.4612C7.80576 79.5958 7.92185 79.7496 8.08632 79.9035C8.05729 79.8939 8.00892 79.8746 7.95087 79.8362C7.97022 79.865 7.99925 79.8939 8.02827 79.9227C8.03794 79.9323 8.04762 79.9323 8.04762 79.9323C8.38622 80.2592 8.88929 80.5957 9.48911 80.9033C10.6984 81.5186 12.2657 81.9897 13.891 82.3262C13.9006 82.3262 13.9007 82.3262 13.9103 82.3262C15.8646 78.9613 19.9472 76.5962 24.7263 76.5097C29.8731 76.4136 34.3234 78.9805 36.2002 82.7012C39.5379 82.4127 42.8756 82.0186 46.1939 81.5667C60.6862 79.5093 74.8786 76.4136 88.4615 72.866C102.054 69.3665 115.047 65.3189 127.246 61.2137C139.436 57.0605 150.842 52.8207 161.213 48.552C171.575 44.2738 180.901 39.9763 188.921 35.7845C196.931 31.612 203.636 27.4876 208.647 23.6804C213.668 19.9213 216.957 16.3161 218.012 14.0472C218.544 12.9608 218.592 12.3262 218.592 11.9994V11.9224C218.592 11.9224 218.602 11.9224 218.602 11.9128C218.65 11.9801 218.573 11.7206 218.554 11.634C218.544 11.5763 218.534 11.5379 218.525 11.4994L218.515 11.461L218.496 11.3937C218.467 11.3264 218.418 11.2206 218.341 11.086C218.167 10.8072 217.789 10.2784 216.677 9.6343C214.5 8.30756 209.692 7.14426 203.374 6.84623C200.82 6.71163 197.821 6.73086 194.609 6.84623C192.52 6.91352 190.353 7.02889 188.166 7.1731C187.702 7.20195 187.296 7.21156 186.831 7.25002C186.657 5.03878 186.27 3.21211 185.603 0.904736C188.621 0.577858 191.523 0.337508 194.29 0.193297C197.637 0.01063 200.772 -0.0470542 203.655 0.0394724C210.543 0.250982 216.174 1.18354 220.218 3.36594C220.682 3.60629 221.117 3.87548 221.524 4.15429C221.543 4.17352 221.562 4.18313 221.582 4.20236C222.917 5.13492 223.942 6.24054 224.542 7.19233C224.61 7.29809 224.668 7.39423 224.726 7.49037C225.016 7.9903 225.21 8.4037 225.326 8.71135C225.364 8.79788 225.393 8.87479 225.422 8.94209C225.5 9.1536 225.539 9.25936 225.539 9.25936L225.597 9.47086C225.597 9.47086 225.635 9.58623 225.693 9.80736C225.722 9.95157 225.751 9.96118 225.819 10.3746C225.877 10.6919 225.964 11.1533 225.974 11.5187C226.1 12.9992 225.78 15.1335 224.803 17.2006Z" fill="#37414D"/>
</svg>
